# xmcd
#
# Track frame offsets:
#	150
#	21705
#	38620
#	55310
#	71673
#	84674
#	101787
#	119876
#	133378
#	150154
#	166891
#	180857
#	197754
#	212385
#	225611
#	243501
#	261973
#	271895
#	288037
#	302997
#
# Disc length: 4279 seconds
#
# Revision: 1
# Processed by: cddbd v1.5.1PL0 Copyright (c) Steve Scherf et al.
# Submitted via: EasyCDDAExtractor 6.0.0.1
#
DISCID=1f10b514
DTITLE=Various Artist - Градус +2
DYEAR=2005
DGENRE=Pop
TTITLE0=Гости из будущего - Лучшее в тебе
TTITLE1=Ногу свело - Идём на Восток! (RDV DJ Remix)
TTITLE2=Vengerov and Fedoroff - Джентельмены удачи
TTITLE3=Катя Лель - Кручу-верчу
TTITLE4=Авраам Руссо - Обручальная
TTITLE5=Ксеня Ларина - Дотронься
TTITLE6=Верка Сердючка and Ирина Билык - Я попала на любовь
TTITLE7=Звери - Снегопад
TTITLE8=Татьяна Буланова - Летела душа
TTITLE9=Revolvers - Целуй меня
TTITLE10=Света - Не надо больше (NeoMaster Remix)
TTITLE11=V.I.P. and Данко - Мишель
TTITLE12=А Сорти - Красивая любовь
TTITLE13=Марина Хлебникова and Александр Иванов - Друзья
TTITLE14=Михаил Шуфутинский - Соло
TTITLE15=Рома Жуков - Пыль мечты 2005
TTITLE16=Жуки and Профессор Лебединский - Комарики
TTITLE17=Дюна - Макаронэ
TTITLE18=Стрелки - Не отпускай меня
TTITLE19=Бридж - Совершенно секретно
EXTD=
EXTT0=
EXTT1=
EXTT2=
EXTT3=
EXTT4=
EXTT5=
EXTT6=
EXTT7=
EXTT8=
EXTT9=
EXTT10=
EXTT11=
EXTT12=
EXTT13=
EXTT14=
EXTT15=
EXTT16=
EXTT17=
EXTT18=
EXTT19=
PLAYORDER=
